<?xml version="1.0" encoding="utf-8" ?>
<svg xmlns="http://www.w3.org/2000/svg" xmlns:xlink="http://www.w3.org/1999/xlink" width="16" height="16" viewBox="0 0 16 16">
	<defs>
		<clipPath id="clipPath3365730770">
			<path transform="matrix(1 0 0 1 0 0)" d="M0 0L16 0L16 16L0 16L0 0Z" fill-rule="nonzero"/>
		</clipPath>
	</defs>
	<g clip-path="url(#clipPath3365730770)">
		<path transform="matrix(1 0 0 1 0 0)" d="M8 1.33333C4.32 1.33333 1.33333 4.32 1.33333 8C1.33333 11.68 4.32 14.6667 8 14.6667C11.68 14.6667 14.6667 11.68 14.6667 8C14.6667 4.32 11.68 1.33333 8 1.33333M8.66667 3.53333L9.56667 2.9C10.7726 3.2737 11.8072 4.0626 12.4867 5.12667L12.2267 6.02L11.3267 6.32667L8.66667 4.46667L8.66667 3.53333M6.43333 2.9L7.33333 3.53333L7.33333 4.46667L4.67333 6.32667L3.77333 6.02L3.51333 5.12667C4.1968 4.06624 5.22985 3.27848 6.43333 2.9M4.72 11.4067L3.96 11.4733C3.1243 10.5093 2.665 9.27583 2.66667 8C2.66667 7.92 2.67333 7.84667 2.68 7.76667L3.34667 7.28L4.26667 7.6L5.24 10.4933L4.72 11.4067M9.66667 13.06C9.14 13.2333 8.58 13.3333 8 13.3333C7.42 13.3333 6.86 13.2333 6.33333 13.06L5.87333 12.0667L6.3 11.3333L9.70667 11.3333L10.1333 12.0733L9.66667 13.06M9.51333 10L6.48667 10L5.58667 7.32L8 5.62667L10.42 7.32L9.51333 10M12.04 11.4733L11.28 11.4067L10.7533 10.4933L11.7267 7.6L12.6533 7.28667L13.32 7.77333C13.3267 7.84667 13.3333 7.92 13.3333 8C13.3333 9.32667 12.8467 10.54 12.04 11.4733" fill-rule="nonzero" fill="rgb(75, 85, 99)"/>
	</g>
</svg>
