<?xml version="1.0" encoding="utf-8" ?>
<svg xmlns="http://www.w3.org/2000/svg" xmlns:xlink="http://www.w3.org/1999/xlink" width="16" height="16" viewBox="0 0 16 16">
	<defs>
		<clipPath id="clipPath1844307498">
			<path transform="matrix(1 0 0 1 0 0)" d="M0 0L16 0L16 16L0 16L0 0Z" fill-rule="nonzero"/>
		</clipPath>
	</defs>
	<g clip-path="url(#clipPath1844307498)">
		<path transform="matrix(1 0 0 1 0 0)" d="M14.6994 0.0471875L4.70031 3C4.28376 3.13085 4.00026 3.51682 4 3.95344L4 12.1225C3.67255 12.043 3.33696 12.0019 3 12C1.34375 12 0 12.8956 0 14C0 15.1044 1.34375 16 3 16C4.65625 16 6 15.1044 6 14L6 6.6975L14 4.35375L14 10.1228C13.6726 10.0431 13.337 10.0018 13 10C11.3438 10 10 10.8956 10 12C10 13.1044 11.3438 14 13 14C14.6562 14 16 13.1047 16 12L16 1C15.9997 0.681612 15.8478 0.382393 15.591 0.194235C15.3341 0.00607765 15.003 -0.0485282 14.6994 0.0471875" fill-rule="nonzero" fill="rgb(75, 85, 99)"/>
	</g>
</svg>
