<?xml version="1.0" encoding="utf-8" ?>
<svg xmlns="http://www.w3.org/2000/svg" xmlns:xlink="http://www.w3.org/1999/xlink" width="24" height="24" viewBox="0 0 24 24">
	<defs>
		<clipPath id="clipPath3671684912">
			<path transform="matrix(1 0 0 1 0 0)" d="M0 0L24 0L24 24L0 24L0 0Z" fill-rule="nonzero"/>
		</clipPath>
	</defs>
	<g clip-path="url(#clipPath3671684912)">
		<path transform="matrix(1 0 0 1 0 0)" d="M21.4073 19.7527L16.9969 15.3422C18.0587 13.9286 18.6319 12.208 18.63 10.44C18.63 5.92406 14.9559 2.25 10.44 2.25C5.92406 2.25 2.25 5.92406 2.25 10.44C2.25 14.9559 5.92406 18.63 10.44 18.63C12.208 18.6319 13.9286 18.0587 15.3422 16.9969L19.7527 21.4073C20.2162 21.8217 20.9227 21.8019 21.3623 21.3623C21.8019 20.9227 21.8217 20.2162 21.4073 19.7527M4.59 10.44C4.59 7.2113 7.2113 4.59 10.44 4.59C13.6687 4.59 16.29 7.2113 16.29 10.44C16.29 13.6687 13.6687 16.29 10.44 16.29C7.21074 16.2861 4.59387 13.6693 4.59 10.44" fill-rule="nonzero" fill="rgb(75, 85, 99)"/>
	</g>
</svg>
