<?xml version="1.0" encoding="utf-8" ?>
<svg xmlns="http://www.w3.org/2000/svg" xmlns:xlink="http://www.w3.org/1999/xlink" width="16" height="16" viewBox="0 0 16 16">
	<defs>
		<clipPath id="clipPath2881478112">
			<path transform="matrix(1 0 0 1 0 0)" d="M0 0L16 0L16 16L0 16L0 0Z" fill-rule="nonzero"/>
		</clipPath>
	</defs>
	<g clip-path="url(#clipPath2881478112)">
		<path transform="matrix(1 0 0 1 0 0)" d="M5.1715 7.72875C4.2745 7.99 3.67275 8.75875 3.73325 9.58125C4.01825 9.26325 4.4535 8.98875 4.98075 8.80825L5.1715 7.72875M2.39525 8.975L1.602 4.48725C1.59475 4.44675 1.609 4.42175 1.608 4.421C3.052 3.6195 4.686 3.19575 6.33325 3.19575C6.3735 3.19575 6.414 3.2 6.4545 3.2005C6.80325 2.86375 7.24775 2.62975 7.74425 2.5505C8.2165 2.475 8.6955 2.43675 9.17375 2.4175C8.924 2.06875 8.56175 1.81175 8.1295 1.7425C7.53175 1.64725 6.931 1.6 6.333 1.6C4.4165 1.6 2.5255 2.0855 0.83 3.0265C0.22575 3.362 -0.098 4.062 0.02625 4.7645L0.8195 9.25225C1.17525 11.2652 4.22775 12.8042 5.93075 12.8042C6.0205 12.8042 6.0995 12.7928 6.181 12.7843C5.843 12.3573 5.4575 11.7723 5.1935 11.0948C4.00325 10.7703 2.542 9.80425 2.39525 8.975M4.834 5.5385C4.81575 5.4355 4.77825 5.34175 4.73225 5.2535C4.526 5.47625 4.2155 5.64725 3.84925 5.7115C3.483 5.776 3.1325 5.7215 2.86225 5.58225C2.84925 5.68075 2.84625 5.78175 2.8645 5.88475C2.9605 6.42725 3.479 6.7895 4.023 6.694C4.56675 6.5985 4.93 6.081 4.834 5.5385M15.17 4.6225C12.9455 3.388 10.3843 2.93725 7.8705 3.33875C7.18775 3.44775 6.6435 3.99525 6.5195 4.69775L5.72625 9.1855C5.3415 11.3617 8.10825 14.0922 9.684 14.3693C11.2598 14.6465 14.7957 13.0245 15.1805 10.8483L15.9738 6.3605C16.098 5.65775 15.7743 4.95775 15.17 4.6225M8.339 7.0425C8.435 6.5 8.9535 6.13775 9.4975 6.2335C10.0415 6.32925 10.4045 6.8465 10.3088 7.389C10.2905 7.492 10.253 7.58575 10.207 7.674C10.0007 7.45125 9.69025 7.28025 9.324 7.216C8.95775 7.1515 8.60725 7.206 8.337 7.34525C8.32375 7.2465 8.32075 7.1455 8.339 7.0425M10.1007 12.0115C8.70875 11.7668 7.76275 10.5297 7.87475 9.189C8.38975 9.8275 9.28 10.3432 10.362 10.5335C11.444 10.7238 12.4575 10.5427 13.1602 10.1185C12.8057 11.417 11.4925 12.2563 10.1007 12.0115M13.3582 8.228C13.152 8.00525 12.8413 7.83425 12.475 7.77C12.1088 7.7055 11.7583 7.76 11.488 7.89925C11.475 7.80075 11.472 7.69975 11.4902 7.59675C11.5862 7.05425 12.1048 6.692 12.6488 6.7875C13.1925 6.88325 13.5557 7.4005 13.46 7.943C13.4417 8.04625 13.4042 8.14 13.3582 8.228" fill-rule="nonzero" fill="rgb(75, 85, 99)"/>
	</g>
</svg>
