<?xml version="1.0" encoding="utf-8" ?>
<svg xmlns="http://www.w3.org/2000/svg" xmlns:xlink="http://www.w3.org/1999/xlink" width="8.7217" height="8.7225" viewBox="0 0 8.7217 8.7225">
	<path transform="matrix(1 0 0 1 -10.2188 -5.0592)" d="M10.438 5.27889C10.1451 5.57178 10.1451 6.04666 10.438 6.33955L11.2119 7.11346C11.5047 7.40635 11.9796 7.40635 12.2725 7.11346C12.5654 6.82056 12.5654 6.34569 12.2725 6.05279L11.4986 5.27889C11.2057 4.986 10.7308 4.986 10.438 5.27889ZM12.759 7.60085C12.4662 7.89387 12.4664 8.36875 12.7594 8.66151L13.2755 9.17713C13.5686 9.46989 14.0434 9.46968 14.3362 9.17665C14.629 8.88363 14.6287 8.40875 14.3357 8.11599L13.8196 7.60037C13.5266 7.30761 13.0517 7.30782 12.759 7.60085ZM14.8233 9.6638C14.5303 9.95656 14.5301 10.4314 14.8229 10.7245L15.3385 11.2406C15.6312 11.5336 16.1061 11.5338 16.3992 11.241C16.6922 10.9483 16.6924 10.4734 16.3996 10.1804L15.884 9.66429C15.5913 9.37126 15.1164 9.37105 14.8233 9.6638ZM16.8865 12.7881C16.5937 12.4953 16.5937 12.0204 16.8865 11.7275C17.1794 11.4346 17.6543 11.4346 17.9472 11.7275L18.7211 12.5014C19.014 12.7943 19.014 13.2692 18.7211 13.562C18.4282 13.8549 17.9533 13.8549 17.6604 13.562L16.8865 12.7881Z" fill-rule="evenodd" fill="rgb(255, 255, 255)"/>
</svg>
