<?xml version="1.0" encoding="utf-8" ?>
<svg xmlns="http://www.w3.org/2000/svg" xmlns:xlink="http://www.w3.org/1999/xlink" width="20" height="20" viewBox="0 0 20 20">
	<defs>
		<clipPath id="clipPath5111692474">
			<path transform="matrix(1 0 0 1 0.000195503 0)" d="M0 0L20 0L20 20L0 20L0 0Z" fill-rule="nonzero"/>
		</clipPath>
	</defs>
	<g clip-path="url(#clipPath5111692474)">
		<path transform="matrix(1 0 0 1 0.000195503 0)" d="M13.8568 6.14499Q13.1781 5.46608 13.1415 4.50681Q13.1049 3.54754 13.7299 2.81888Q13.6081 2.96167 13.6159 3.14748Q13.6236 3.33328 13.7557 3.4642L12.0297 1.73622Q12.1686 1.87505 12.3645 1.87505Q12.5603 1.87505 12.6989 1.73658L9.95132 4.48413Q9.90153 4.53391 9.8793 4.60063Q9.76462 4.94703 9.50623 5.20628Q9.24785 5.46553 8.90075 5.58173Q8.83269 5.60441 8.78253 5.65448L1.73642 12.699Q1.87505 12.5603 1.87505 12.3645Q1.87505 12.1686 1.73658 12.03L3.4603 13.7538Q3.33133 13.6236 3.14552 13.6159Q2.95972 13.6081 2.81823 13.7288Q3.5452 13.1044 4.50489 13.1408Q5.46459 13.1772 6.14368 13.8563Q6.82277 14.5354 6.85917 15.4951Q6.89556 16.4548 6.26985 17.1834Q6.3919 17.0403 6.38413 16.8545Q6.37636 16.6687 6.24428 16.5378L7.97007 18.2635Q7.83142 18.125 7.63555 18.125Q7.43967 18.1249 7.30113 18.2634L14.3479 11.217Q14.3975 11.1673 14.4199 11.1001Q14.5346 10.7537 14.793 10.4945Q15.0514 10.2352 15.3985 10.119Q15.4661 10.0965 15.5158 10.0468L18.2635 7.29907Q18.125 7.43772 18.125 7.63359Q18.1249 7.82947 18.2634 7.96801L16.5397 6.24429Q16.6687 6.37441 16.8545 6.38218Q17.0403 6.38995 17.1818 6.26927Q16.4561 6.89357 15.4969 6.85848Q14.5376 6.82339 13.8577 6.14586L14.74 5.26039Q15.0729 5.59213 15.5426 5.60931Q16.0123 5.62649 16.3706 5.31823Q16.6024 5.12054 16.9067 5.13327Q17.2111 5.146 17.4236 5.3604L19.1475 7.08434Q19.375 7.31188 19.375 7.63359Q19.375 7.95531 19.1474 8.18296L16.3998 10.9306Q16.1413 11.1891 15.7953 11.3044Q15.6533 11.3519 15.6058 11.4952Q15.4903 11.8419 15.2318 12.1009L8.1848 19.1475Q7.95726 19.375 7.63555 19.375Q7.31383 19.375 7.08618 19.1474L5.36431 17.4255Q5.14795 17.2111 5.13522 16.9067Q5.12249 16.6024 5.32156 16.369Q5.62788 16.0123 5.61006 15.5425Q5.59225 15.0727 5.2598 14.7402Q4.92735 14.4078 4.45752 14.3899Q3.9877 14.3721 3.62943 14.6798Q3.39766 14.8775 3.09329 14.8648Q2.78893 14.852 2.57642 14.6376L0.852486 12.9137Q0.62505 12.6862 0.62505 12.3645Q0.62505 12.0427 0.852638 11.815L7.8995 4.76974Q8.15812 4.51162 8.50393 4.39639Q8.64593 4.34885 8.69336 4.20562Q8.8089 3.85871 9.06743 3.60025L11.8152 0.852486Q12.0427 0.62505 12.3645 0.62505Q12.6862 0.62505 12.9141 0.85284L14.6357 2.57642Q14.852 2.79088 14.8648 3.09524Q14.8775 3.39961 14.6787 3.63268Q14.3727 3.98946 14.3906 4.45915Q14.4085 4.92884 14.7408 5.26126L13.8568 6.14499Z" fill-rule="nonzero" fill="rgb(51, 102, 255)" style="mix-blend-mode: multiply"/>
		<path transform="matrix(1 0 0 1 0.000195503 0)" d="M8.69829 4.39907C8.45422 4.64315 8.45422 5.03888 8.69829 5.28296L9.34321 5.92788C9.58729 6.17196 9.98302 6.17196 10.2271 5.92788C10.4712 5.6838 10.4712 5.28807 10.2271 5.044L9.58218 4.39907C9.3381 4.155 8.94237 4.155 8.69829 4.39907ZM10.6325 6.33404C10.3885 6.57823 10.3887 6.97396 10.6329 7.21792L11.0629 7.64761C11.3071 7.89158 11.7029 7.8914 11.9468 7.64721C12.1908 7.40302 12.1906 7.00729 11.9464 6.76333L11.5164 6.33364C11.2722 6.08967 10.8764 6.08985 10.6325 6.33404ZM12.3528 8.05317C12.1086 8.29714 12.1084 8.69287 12.3524 8.93705L12.7821 9.36713C13.026 9.61132 13.4218 9.6115 13.666 9.36753C13.9101 9.12357 13.9103 8.72784 13.6664 8.48365L13.2367 8.05357C12.9927 7.80939 12.597 7.80921 12.3528 8.05317ZM14.0721 9.7729C13.828 10.017 13.828 10.4127 14.0721 10.6568L14.717 11.3017C14.9611 11.5458 15.3568 11.5458 15.6009 11.3017C15.845 11.0576 15.845 10.6619 15.6009 10.4178L14.956 9.7729C14.7119 9.52883 14.3162 9.52883 14.0721 9.7729Z" fill-rule="evenodd" fill="rgb(51, 102, 255)" style="mix-blend-mode: multiply"/>
	</g>
</svg>
